<?xml version="1.0" encoding="UTF-8" standalone="no"?>
<!DOCTYPE svg PUBLIC "-//W3C//DTD SVG 1.1//EN" "http://www.w3.org/Graphics/SVG/1.1/DTD/svg11.dtd">
<svg version="1.1" xmlns="http://www.w3.org/2000/svg" xmlns:xlink="http://www.w3.org/1999/xlink" preserveAspectRatio="xMidYMid meet" viewBox="0 0 640 640" width="640" height="640"><defs><path d="M585 304.27C585 408.31 470.74 492.77 330 492.77C189.26 492.77 75 408.31 75 304.27C75 200.24 189.26 115.77 330 115.77C470.74 115.77 585 200.24 585 304.27Z" id="c2kDY7BSPT"></path><path d="M535.9 243C541.23 243 545.55 247.32 545.55 252.65C545.55 270.72 545.55 315.28 545.55 333.35C545.55 338.68 541.23 343 535.9 343C457.83 343 233.26 343 155.19 343C149.87 343 145.55 338.68 145.55 333.35C145.55 315.28 145.55 270.72 145.55 252.65C145.55 247.32 149.87 243 155.19 243C233.26 243 457.83 243 535.9 243Z" id="ddBG61hqb"></path><path d="M524.9 230C530.23 230 534.55 234.32 534.55 239.65C534.55 257.72 534.55 302.28 534.55 320.35C534.55 325.68 530.23 330 524.9 330C446.83 330 222.26 330 144.19 330C138.87 330 134.55 325.68 134.55 320.35C134.55 302.28 134.55 257.72 134.55 239.65C134.55 234.32 138.87 230 144.19 230C222.26 230 446.83 230 524.9 230Z" id="bw1HZLsoI"></path><mask id="maska4jMJsxpZ" x="124.55" y="220" width="420" height="120" maskUnits="userSpaceOnUse"><rect x="124.55" y="220" width="420" height="120" fill="white"></rect><use xlink:href="#bw1HZLsoI" opacity="1" fill="black"></use></mask><path d="M244.11 326.47L243.13 324.78L242.2 323.12L241.33 321.51L240.51 319.95L239.75 318.42L239.05 316.95L238.4 315.51L237.81 314.12L237.28 312.77L236.8 311.47L236.38 310.21L236.01 308.99L235.7 307.82L235.45 306.69L235.25 305.61L235.11 304.56L235.03 303.57L235 302.61L235.03 301.7L235.11 300.84L235.25 300.02L235.45 299.24L235.7 298.5L236.01 297.81L236.38 297.16L236.8 296.56L237.28 296L237.81 295.48L238.4 295.01L239.05 294.58L239.75 294.2L240.51 293.86L241.33 293.56L242.2 293.3L243.13 293.09L244.11 292.93L245.15 292.81L246.25 292.73L247.98 292.65L249.79 292.57L251.67 292.51L253.63 292.45L255.65 292.4L257.74 292.36L259.89 292.32L262.09 292.29L264.34 292.27L266.64 292.25L268.98 292.23L271.36 292.23L273.77 292.22L276.21 292.22L278.68 292.23L281.17 292.24L283.68 292.25L286.19 292.26L288.72 292.28L291.25 292.3L293.78 292.32L296.31 292.35L298.82 292.37L301.33 292.4L303.82 292.43L306.29 292.46L308.73 292.48L311.14 292.51L313.52 292.54L315.86 292.57L318.16 292.59L320.41 292.62L322.61 292.64L324.76 292.66L326.85 292.68L328.87 292.7L330.83 292.71L332.71 292.72L334.52 292.73L336.25 292.73L337.98 292.73L339.79 292.72L341.67 292.71L343.63 292.7L345.65 292.68L347.74 292.66L349.89 292.64L352.09 292.62L354.34 292.59L356.64 292.57L358.98 292.54L361.36 292.51L363.77 292.48L366.21 292.46L368.68 292.43L371.17 292.4L373.68 292.37L376.19 292.35L378.72 292.32L381.25 292.3L383.78 292.28L386.31 292.26L388.82 292.25L391.33 292.24L393.82 292.23L396.29 292.22L398.73 292.22L401.14 292.23L403.52 292.23L405.86 292.25L408.16 292.27L410.41 292.29L412.61 292.32L414.76 292.36L416.85 292.4L418.87 292.45L420.83 292.51L422.71 292.57L424.52 292.65L426.25 292.73L427.35 292.81L428.39 292.93L429.37 293.09L430.3 293.3L431.17 293.56L431.99 293.86L432.75 294.2L433.45 294.58L434.1 295.01L434.69 295.48L435.22 296L435.7 296.56L436.12 297.16L436.49 297.81L436.8 298.5L437.05 299.24L437.25 300.02L437.39 300.84L437.47 301.7L437.5 302.61L437.47 303.57L437.39 304.56L437.25 305.61L437.05 306.69L436.8 307.82L436.49 308.99L436.12 310.21L435.7 311.47L435.22 312.77L434.69 314.12L434.1 315.51L433.45 316.95L432.75 318.42L431.99 319.95L431.17 321.51L430.3 323.12L429.37 324.78L428.39 326.47L427.35 328.22L426.25 330L246.25 330L245.15 328.22L244.11 326.47Z" id="c2D2tjhL0"></path><path d="M255.41 468.02L235.74 432.88L254.32 400.76C244.45 381.37 237.88 368.44 234.59 361.98" id="d1nKUnNYr"></path><path d="M340.41 468.02L320.74 432.88L339.32 400.76L319.59 361.98" id="b5yzmdT0e"></path><path d="" id="e1gK3UrrxP"></path><path d="M431.25 468.02L411.59 432.88L430.16 400.76L410.44 361.98" id="buUXt6SkF"></path><path d="" id="a6n7bI06yj"></path><path d="M137 84.5L303 84.5L303 215.5L137 215.5L137 84.5Z" id="a7ckNyp4p"></path><path d="M238 156C238 178.08 220.08 196 198 196C175.92 196 158 178.08 158 156C158 133.92 175.92 116 198 116C220.08 116 238 133.92 238 156Z" id="bIr7A6YqT"></path><path d="M234 150C234 172.08 216.08 190 194 190C171.92 190 154 172.08 154 150C154 127.92 171.92 110 194 110C216.08 110 234 127.92 234 150Z" id="c1aBVdRgqC"></path><path d="M477 250C478.1 250 479 250.9 479 252C479 252.4 479 251.6 479 252C479 253.1 478.1 254 477 254C421.4 254 256.6 254 201 254C199.9 254 199 253.1 199 252C199 251.6 199 252.4 199 252C199 250.9 199.9 250 201 250C256.6 250 421.4 250 477 250Z" id="c3d6l9hsUD"></path><path d="M435 270C436.1 270 437 270.9 437 272C437 272.4 437 271.6 437 272C437 273.1 436.1 274 435 274C395.4 274 278.6 274 239 274C237.9 274 237 273.1 237 272C237 271.6 237 272.4 237 272C237 270.9 237.9 270 239 270C278.6 270 395.4 270 435 270Z" id="g8dyCfWOj"></path><path d="M287.61 103C288.93 103 290 104.07 290 105.39C290 105.86 290 104.91 290 105.39C290 106.7 288.93 107.77 287.61 107.77C274.09 107.77 235.91 107.77 222.39 107.77C221.07 107.77 220 106.7 220 105.39C220 104.91 220 105.86 220 105.39C220 104.07 221.07 103 222.39 103C235.91 103 274.09 103 287.61 103Z" id="a821raa7D"></path><path d="M287.61 187.61C288.93 187.61 290 188.68 290 190C290 190.48 290 189.52 290 190C290 191.32 288.93 192.39 287.61 192.39C274.09 192.39 235.91 192.39 222.39 192.39C221.07 192.39 220 191.32 220 190C220 189.52 220 190.48 220 190C220 188.68 221.07 187.61 222.39 187.61C235.91 187.61 274.09 187.61 287.61 187.61Z" id="b4fXlVBDDg"></path><path d="M283.5 130C284.88 130 286 131.12 286 132.5C286 133 286 132 286 132.5C286 133.88 284.88 135 283.5 135C277.6 135 262.4 135 256.5 135C255.12 135 254 133.88 254 132.5C254 132 254 133 254 132.5C254 131.12 255.12 130 256.5 130C262.4 130 277.6 130 283.5 130Z" id="bjhwcVtoy"></path><path d="M283.5 160.77C284.88 160.77 286 161.89 286 163.27C286 163.77 286 162.77 286 163.27C286 164.65 284.88 165.77 283.5 165.77C277.6 165.77 262.4 165.77 256.5 165.77C255.12 165.77 254 164.65 254 163.27C254 162.77 254 163.77 254 163.27C254 161.89 255.12 160.77 256.5 160.77C262.4 160.77 277.6 160.77 283.5 160.77Z" id="a3KjtbtdmP"></path><path d="M203 150C203 155.52 198.52 160 193 160C187.48 160 183 155.52 183 150C183 144.48 187.48 140 193 140C198.52 140 203 144.48 203 150Z" id="b2ibVmY8cd"></path><path d="M382 203.77L382 153.77L318 152.77" id="gSeSi3Gf6"></path><path d="M405 183.77L405 133.77L341 132.77" id="b3zIbjgHCV"></path></defs><g><g><g><use xlink:href="#c2kDY7BSPT" opacity="0.35" fill="#000000" fill-opacity="1"></use></g><g><use xlink:href="#ddBG61hqb" opacity="0.5" fill="#000000" fill-opacity="1"></use></g><g><use xlink:href="#bw1HZLsoI" opacity="1" fill="#000000" fill-opacity="1"></use><g mask="url(#maska4jMJsxpZ)"><use xlink:href="#bw1HZLsoI" opacity="1" fill-opacity="0" stroke="#000000" stroke-width="10" stroke-opacity="1"></use></g></g><g><use xlink:href="#c2D2tjhL0" opacity="0.5" fill="#5f5f5f" fill-opacity="1"></use><g><use xlink:href="#c2D2tjhL0" opacity="0.5" fill-opacity="0" stroke="#000000" stroke-width="5" stroke-opacity="1"></use></g></g><g><g><use xlink:href="#d1nKUnNYr" opacity="1" fill-opacity="0" stroke="#000000" stroke-width="5" stroke-opacity="1"></use></g></g><g><g><use xlink:href="#b5yzmdT0e" opacity="1" fill-opacity="0" stroke="#000000" stroke-width="5" stroke-opacity="1"></use></g></g><g><g><use xlink:href="#e1gK3UrrxP" opacity="1" fill-opacity="0" stroke="#000000" stroke-width="5" stroke-opacity="1"></use></g></g><g><g><use xlink:href="#buUXt6SkF" opacity="1" fill-opacity="0" stroke="#000000" stroke-width="5" stroke-opacity="1"></use></g></g><g><g><use xlink:href="#a6n7bI06yj" opacity="1" fill-opacity="0" stroke="#000000" stroke-width="5" stroke-opacity="1"></use></g></g><g><use xlink:href="#a7ckNyp4p" opacity="1" fill="#000000" fill-opacity="1"></use><g><use xlink:href="#a7ckNyp4p" opacity="1" fill-opacity="0" stroke="#000000" stroke-width="5" stroke-opacity="1"></use></g></g><g><use xlink:href="#bIr7A6YqT" opacity="0.57" fill="#000000" fill-opacity="1"></use><g></g></g><g><use xlink:href="#c1aBVdRgqC" opacity="0.5" fill="#ffffff" fill-opacity="1"></use><g><use xlink:href="#c1aBVdRgqC" opacity="0.5" fill-opacity="0" stroke="#000000" stroke-width="5" stroke-opacity="1"></use></g><g></g></g><g><use xlink:href="#c3d6l9hsUD" opacity="1" fill="#ffffff" fill-opacity="1"></use></g><g><use xlink:href="#g8dyCfWOj" opacity="1" fill="#ffffff" fill-opacity="1"></use></g><g><use xlink:href="#a821raa7D" opacity="1" fill="#ffffff" fill-opacity="1"></use></g><g><use xlink:href="#b4fXlVBDDg" opacity="1" fill="#ffffff" fill-opacity="1"></use></g><g><use xlink:href="#bjhwcVtoy" opacity="1" fill="#ffffff" fill-opacity="1"></use></g><g><use xlink:href="#a3KjtbtdmP" opacity="1" fill="#ffffff" fill-opacity="1"></use></g><g><use xlink:href="#b2ibVmY8cd" opacity="1" fill="#141411" fill-opacity="1"></use></g><g><g><use xlink:href="#gSeSi3Gf6" opacity="1" fill-opacity="0" stroke="#000000" stroke-width="5" stroke-opacity="1"></use></g></g><g><g><use xlink:href="#b3zIbjgHCV" opacity="1" fill-opacity="0" stroke="#000000" stroke-width="5" stroke-opacity="1"></use></g></g></g></g></svg>