<?xml version="1.0" encoding="UTF-8" standalone="no"?>
<!DOCTYPE svg PUBLIC "-//W3C//DTD SVG 1.1//EN" "http://www.w3.org/Graphics/SVG/1.1/DTD/svg11.dtd">
<svg version="1.1" xmlns="http://www.w3.org/2000/svg" xmlns:xlink="http://www.w3.org/1999/xlink" preserveAspectRatio="xMidYMid meet" viewBox="0 0 640 640" width="640" height="640"><defs><path d="M584.71 310C584.71 463.54 470.58 588.19 330 588.19C189.42 588.19 75.29 463.54 75.29 310C75.29 156.46 189.42 31.81 330 31.81C470.58 31.81 584.71 156.46 584.71 310Z" id="bVqT8dCGO"></path><path d="M470.46 103C477.35 103 482.94 108.59 482.94 115.49C482.94 139.12 482.94 197.54 482.94 221.18C482.94 228.08 477.35 233.67 470.46 233.67C414.02 233.67 257.2 233.67 200.76 233.67C193.86 233.67 188.27 228.08 188.27 221.18C188.27 197.54 188.27 139.12 188.27 115.49C188.27 108.59 193.86 103 200.76 103C257.2 103 414.02 103 470.46 103Z" id="c1jxziv1B"></path><path d="M470.46 243C477.35 243 482.94 248.59 482.94 255.49C482.94 310.59 482.94 463.41 482.94 518.51C482.94 525.41 477.35 531 470.46 531C414.02 531 257.2 531 200.76 531C193.86 531 188.27 525.41 188.27 518.51C188.27 463.41 188.27 310.59 188.27 255.49C188.27 248.59 193.86 243 200.76 243C257.2 243 414.02 243 470.46 243Z" id="a33eJCRSf"></path><path d="M457.79 89C464.68 89 470.27 94.59 470.27 101.49C470.27 125.12 470.27 183.54 470.27 207.18C470.27 214.08 464.68 219.67 457.79 219.67C401.35 219.67 244.53 219.67 188.09 219.67C181.2 219.67 175.61 214.08 175.61 207.18C175.61 183.54 175.61 125.12 175.61 101.49C175.61 94.59 181.2 89 188.09 89C244.53 89 401.35 89 457.79 89Z" id="c1dV9Ilwo7"></path><path d="M457.79 229C464.68 229 470.27 234.59 470.27 241.49C470.27 296.59 470.27 449.41 470.27 504.51C470.27 511.41 464.68 517 457.79 517C401.35 517 244.53 517 188.09 517C181.2 517 175.61 511.41 175.61 504.51C175.61 449.41 175.61 296.59 175.61 241.49C175.61 234.59 181.2 229 188.09 229C244.53 229 401.35 229 457.79 229Z" id="a1718lENqO"></path><path d="M222.11 109C225.7 109 228.61 111.91 228.61 115.5C228.61 133.8 228.61 182.2 228.61 200.5C228.61 204.09 225.7 207 222.11 207C220.81 207 223.41 207 222.11 207C218.52 207 215.61 204.09 215.61 200.5C215.61 182.2 215.61 133.8 215.61 115.5C215.61 111.91 218.52 109 222.11 109C223.41 109 220.81 109 222.11 109Z" id="dhyT6HPI"></path><path d="M222.7 249C226.29 249.05 229.16 251.99 229.12 255.58C228.65 294.49 227.32 404.72 226.85 443.63C226.8 447.22 223.86 450.1 220.27 450.05C218.97 450.04 221.57 450.07 220.27 450.05C216.68 450.01 213.81 447.07 213.85 443.48C214.32 404.57 215.65 294.33 216.12 255.42C216.17 251.83 219.11 248.96 222.7 249C224 249.02 221.4 248.99 222.7 249Z" id="c86pJco6vP"></path><path d="M415.61 513.82L431.97 513.82L431.97 527L415.61 527L415.61 513.82Z" id="b1aMImNEXf"></path><path d="M222.88 513.82L239.24 513.82L239.24 527L222.88 527L222.88 513.82Z" id="b2IqZd3M4A"></path></defs><g><g><g><use xlink:href="#bVqT8dCGO" opacity="0.35" fill="#060606" fill-opacity="1"></use></g><g><use xlink:href="#c1jxziv1B" opacity="0.5" fill="#000000" fill-opacity="1"></use></g><g><use xlink:href="#a33eJCRSf" opacity="0.5" fill="#000000" fill-opacity="1"></use></g><g><use xlink:href="#c1dV9Ilwo7" opacity="1" fill="#000000" fill-opacity="1"></use></g><g><use xlink:href="#a1718lENqO" opacity="1" fill="#000000" fill-opacity="1"></use></g><g><use xlink:href="#dhyT6HPI" opacity="1" fill="#ffffff" fill-opacity="1"></use></g><g><use xlink:href="#c86pJco6vP" opacity="1" fill="#ffffff" fill-opacity="1"></use></g><g><use xlink:href="#b1aMImNEXf" opacity="1" fill="#000000" fill-opacity="1"></use></g><g><use xlink:href="#b2IqZd3M4A" opacity="1" fill="#000000" fill-opacity="1"></use></g></g></g></svg>